Coordinates
version=1
nRows=20
nColumns=38
inDegrees=no

Units are S.I. units (second, meters, Newtons, ...)
If the header above contains a line with 'inDegrees', this indicates whether rotational values are in degrees (yes) or radians (no).

endheader
time	pelvis_tilt	pelvis_list	pelvis_rotation	pelvis_tx	pelvis_ty	pelvis_tz	hip_flexion_r	hip_adduction_r	hip_rotation_r	knee_angle_r	ankle_angle_r	subtalar_angle_r	mtp_angle_r	hip_flexion_l	hip_adduction_l	hip_rotation_l	knee_angle_l	ankle_angle_l	subtalar_angle_l	mtp_angle_l	lumbar_extension	lumbar_bending	lumbar_rotation	arm_flex_r	arm_add_r	arm_rot_r	elbow_flex_r	pro_sup_r	wrist_flex_r	wrist_dev_r	arm_flex_l	arm_add_l	arm_rot_l	elbow_flex_l	pro_sup_l	wrist_flex_l	wrist_dev_l
0.99	0.512796	1.49356	-2.01609	0.806039	0.243301	0.957949	0.59306	-0.150046	-0.0958926	0.766815	0.100672	0	0	-0.165299	0.136371	0.00785335	0.167508	0.230323	0	0	-0.147833	-0.0738621	-0.153484	-0.0585813	-0.106192	-0.221691	0.256348	1.41249	0	0	-0.153325	-0.547431	0.659489	0.716689	0.562313	0	0
1	0.481476	1.49341	-1.98224	0.80568	0.231779	0.956463	0.591821	-0.149773	-0.112414	0.713231	0.107191	0	0	-0.186705	0.132481	0.013648	0.155826	0.237746	0	0	-0.151085	-0.0710615	-0.151917	-0.0576112	-0.105599	-0.21886	0.256884	1.40708	0	0	-0.143547	-0.544391	0.658481	0.711349	0.568835	0	0
1.01	0.447609	1.4931	-1.94631	0.805249	0.220095	0.954837	0.589102	-0.148704	-0.129896	0.659297	0.11468	0	0	-0.208104	0.128179	0.0185602	0.144835	0.245421	0	0	-0.154165	-0.0680886	-0.150493	-0.0565412	-0.104672	-0.218912	0.258144	1.39977	0	0	-0.135116	-0.540984	0.656096	0.706669	0.575977	0	0
1.02	0.40657	1.49305	-1.90309	0.804733	0.208246	0.953095	0.584658	-0.146256	-0.148632	0.604414	0.123136	0	0	-0.228423	0.122727	0.0222358	0.136036	0.253799	0	0	-0.156883	-0.0644189	-0.149835	-0.055122	-0.103401	-0.21907	0.258773	1.39347	0	0	-0.128171	-0.537405	0.652403	0.702819	0.583647	0	0
1.03	0.370721	1.49397	-1.86432	0.804135	0.196228	0.951136	0.580455	-0.14361	-0.168959	0.550562	0.132731	0	0	-0.245513	0.116678	0.0239824	0.131611	0.264451	0	0	-0.158099	-0.0609627	-0.150427	-0.0537522	-0.101601	-0.219461	0.258991	1.39103	0	0	-0.122754	-0.53504	0.650219	0.701399	0.586991	0	0
1.04	0.349594	1.49578	-1.83997	0.803446	0.184054	0.948936	0.577323	-0.14137	-0.189218	0.498904	0.143633	0	0	-0.25943	0.111257	0.0245334	0.130796	0.275815	0	0	-0.157702	-0.0586008	-0.151985	-0.0522552	-0.0994788	-0.218964	0.258492	1.3896	0	0	-0.118707	-0.533552	0.648518	0.701434	0.590151	0	0
1.05	0.31347	1.49758	-1.80019	0.802711	0.171728	0.946691	0.571679	-0.137099	-0.209322	0.445929	0.153192	0	0	-0.27233	0.104564	0.0245313	0.13253	0.287841	0	0	-0.157378	-0.0551371	-0.154569	-0.0498621	-0.0973905	-0.217768	0.256387	1.38831	0	0	-0.115531	-0.532152	0.646878	0.702174	0.593799	0	0
1.06	0.242924	1.50044	-1.72305	0.801684	0.159546	0.944346	0.564252	-0.129524	-0.229221	0.391583	0.160457	0	0	-0.254685	0.0900166	-0.026682	0.194686	0.329176	0	0	-0.156956	-0.0495073	-0.160507	-0.0468344	-0.0940935	-0.216486	0.254381	1.38685	0	0	-0.112908	-0.532296	0.645228	0.703921	0.597902	0	0
1.07	0.159723	1.49913	-1.6381	0.801023	0.146608	0.942336	0.550404	-0.118798	-0.242081	0.335046	0.165044	0	0	-0.296546	0.0845891	0.0194767	0.145098	0.315434	0	0	-0.159155	-0.0423869	-0.161893	-0.0451419	-0.093709	-0.211513	0.253789	1.3796	0	0	-0.110997	-0.527831	0.640229	0.701868	0.613908	0	0
1.08	0.10252	1.50147	-1.57622	0.800081	0.133811	0.939881	0.542272	-0.110252	-0.252501	0.285328	0.170569	0	0	-0.30452	0.0759493	0.0176808	0.155059	0.328434	0	0	-0.157253	-0.0378459	-0.166068	-0.0436084	-0.091215	-0.210162	0.252443	1.37804	0	0	-0.108947	-0.527669	0.642982	0.703178	0.617033	0	0
1.09	0.0550341	1.50393	-1.52524	0.798599	0.120628	0.937243	0.539304	-0.10709	-0.276684	0.252318	0.182292	0	0	-0.311936	0.0676336	0.013272	0.166309	0.341033	0	0	-0.154182	-0.0354566	-0.169597	-0.042722	-0.0877825	-0.208077	0.250977	1.37798	0	0	-0.108815	-0.529707	0.646342	0.706305	0.620232	0	0
1.1	-0.0335004	1.5039	-1.43187	0.797469	0.1074	0.935051	0.524066	-0.0934503	-0.269728	0.200817	0.176428	0	0	-0.318588	0.055686	0.00407259	0.183822	0.356078	0	0	-0.153607	-0.0291879	-0.174497	-0.0407006	-0.0861877	-0.200207	0.248955	1.37856	0	0	-0.107849	-0.530183	0.651219	0.707389	0.630845	0	0
1.11	-0.0803729	1.50473	-1.38062	0.796416	0.0938992	0.932817	0.513695	-0.0849102	-0.263588	0.164343	0.173015	0	0	-0.325194	0.0470886	-0.00223414	0.199718	0.366701	0	0	-0.151594	-0.026095	-0.179343	-0.0395049	-0.0848992	-0.191984	0.247676	1.38187	0	0	-0.1081	-0.530473	0.654203	0.708626	0.640113	0	0
1.12	-0.0893515	1.50687	-1.36786	0.795454	0.0801453	0.930547	0.512313	-0.0827186	-0.266626	0.152764	0.177793	0	0	-0.331486	0.0417854	-0.00523954	0.214089	0.373006	0	0	-0.14826	-0.0257969	-0.183471	-0.039127	-0.0836034	-0.18825	0.246703	1.38456	0	0	-0.108923	-0.530905	0.657518	0.710448	0.644127	0	0
1.13	-0.105577	1.50841	-1.34776	0.794523	0.0660998	0.928452	0.513066	-0.081307	-0.271736	0.154785	0.182145	0	0	-0.337026	0.0352834	-0.00965346	0.231503	0.379198	0	0	-0.145187	-0.0247026	-0.187633	-0.0397001	-0.0830443	-0.184158	0.246472	1.38803	0	0	-0.110604	-0.531075	0.660121	0.713269	0.64919	0	0
1.14	-0.124398	1.50998	-1.32489	0.793735	0.0517762	0.926475	0.517534	-0.0819187	-0.280265	0.171815	0.185707	0	0	-0.341695	0.0284753	-0.0129259	0.250612	0.383531	0	0	-0.141533	-0.0230621	-0.192266	-0.0409951	-0.083217	-0.180069	0.246791	1.39165	0	0	-0.113591	-0.530582	0.661716	0.715908	0.654752	0	0
1.15	-0.152665	1.51188	-1.29219	0.793111	0.0371	0.92458	0.523894	-0.0836067	-0.290154	0.198674	0.186666	0	0	-0.345213	0.0213137	-0.0144326	0.270985	0.385291	0	0	-0.136616	-0.0204048	-0.197529	-0.0430211	-0.0839485	-0.176825	0.24738	1.39532	0	0	-0.117963	-0.529135	0.662538	0.717625	0.660591	0	0
1.16	-0.187114	1.51362	-1.25126	0.79318	0.0221616	0.922985	0.525219	-0.0813798	-0.283564	0.219648	0.177799	0	0	-0.348056	0.0143795	-0.0102364	0.292283	0.383072	0	0	-0.131157	-0.0159153	-0.204734	-0.0456371	-0.0862366	-0.174593	0.248261	1.39942	0	0	-0.122426	-0.524983	0.662895	0.716593	0.666245	0	0
1.17	-0.242593	1.5157	-1.18928	0.79283	0.00662765	0.92136	0.528037	-0.0815671	-0.287138	0.25009	0.174109	0	0	-0.349045	0.00545618	-0.00803142	0.316329	0.379588	0	0	-0.123496	-0.0114236	-0.212343	-0.0497486	-0.0879822	-0.172125	0.248857	1.40394	0	0	-0.12995	-0.521909	0.6612	0.716997	0.671132	0	0
1.18	-0.2934	1.51883	-1.13025	0.792628	-0.00942406	0.919744	0.529842	-0.0830078	-0.290163	0.282772	0.173561	0	0	-0.34731	-0.00311233	-0.00524012	0.343601	0.373455	0	0	-0.113539	-0.00800083	-0.222297	-0.0553653	-0.0898154	-0.169946	0.249476	1.4085	0	0	-0.140124	-0.51889	0.657971	0.71791	0.674734	0	0
